<svg xmlns="http://www.w3.org/2000/svg" width="1024" height="1024" viewBox="0 0 1024 1024" version="1.1"><path d="M 327 241.192 C 323.725 242.872, 321.888 244.714, 320.250 247.962 C 318.046 252.332, 318 253.132, 318 287 C 318 320.868, 318.046 321.668, 320.250 326.038 C 324.658 334.779, 335.089 337.221, 342.823 331.322 C 348.861 326.716, 349 325.725, 349 287.348 C 349 254.750, 348.879 252.383, 347.015 248.566 C 343.030 240.404, 334.595 237.297, 327 241.192 M 400.500 240.494 C 395.817 242.146, 391.248 247.132, 390.456 251.454 C 390.149 253.129, 390.034 270.250, 390.199 289.500 C 390.496 323.991, 390.533 324.546, 392.757 327.664 C 396.072 332.311, 402.941 335.355, 408.134 334.477 C 413.617 333.551, 418.816 328.753, 420.029 323.500 C 420.537 321.300, 420.953 304.650, 420.954 286.500 C 420.956 256.616, 420.783 253.118, 419.120 249.459 C 417.059 244.922, 411.796 240, 409.005 240 C 407.992 240, 406.564 239.794, 405.832 239.542 C 405.099 239.290, 402.700 239.718, 400.500 240.494 M 610.970 241.250 C 608.520 242.488, 605.500 245.029, 604.258 246.898 C 602.017 250.271, 602 250.567, 602 287 C 602 323.417, 602.018 323.730, 604.250 327.010 C 607.871 332.331, 611.373 334.385, 616.824 334.385 C 622.763 334.385, 627.676 331.712, 630.465 326.965 C 632.385 323.696, 632.517 321.597, 632.799 289.790 C 632.996 267.644, 632.724 254.689, 632.007 252.027 C 630.560 246.653, 625.718 241.294, 621.168 240.030 C 616.225 238.657, 616.064 238.676, 610.970 241.250 M 684.001 240.078 C 682.626 240.651, 680.446 242.106, 679.155 243.310 C 674.029 248.097, 674 248.342, 674 287.302 C 674 323.406, 674.018 323.731, 676.250 327.010 C 679.871 332.331, 683.373 334.385, 688.824 334.385 C 694.579 334.385, 699.668 331.733, 702.184 327.425 C 703.712 324.809, 704.027 320.348, 704.620 292.960 C 704.994 275.657, 704.979 258.935, 704.585 255.800 C 703.435 246.650, 698.121 240.517, 690.500 239.546 C 688.300 239.266, 685.375 239.505, 684.001 240.078 M 440 296.290 C 440 327.466, 439.365 331.085, 432.159 340.982 C 428.268 346.326, 426.179 348.130, 420.557 351 C 414.367 354.160, 412.915 354.497, 405.601 354.472 C 398.986 354.449, 396.455 353.959, 391.804 351.802 C 380.865 346.729, 371.458 333.836, 370.266 322.285 C 369.694 316.750, 368.046 316.742, 368.015 322.275 C 367.973 329.877, 360.795 342.552, 353.325 348.212 C 344.295 355.055, 328.847 356.597, 319 351.640 C 311.462 347.845, 304.714 340.954, 301.343 333.610 C 298.667 327.780, 298.522 326.688, 298.172 309.750 C 297.971 299.988, 297.488 292, 297.099 292 C 295.464 292, 287.170 297.977, 282.972 302.180 C 280.482 304.673, 276.882 309.790, 274.972 313.552 C 271.500 320.390, 271.500 320.390, 271.184 362.976 C 270.870 405.205, 270.886 405.585, 273.006 408.281 C 275.145 411, 275.145 411, 511.118 411 C 747.091 411, 747.091 411, 749.545 408.545 C 752 406.091, 752 406.091, 751.942 374.295 C 751.862 330.278, 751.170 321.820, 746.946 313.239 C 743.215 305.659, 735.465 297.298, 729.214 294.109 C 726.940 292.949, 724.873 292, 724.621 292 C 724.368 292, 724.013 300.013, 723.831 309.807 C 723.500 327.614, 723.500 327.614, 719.714 335.270 C 714.282 346.252, 707.299 351.620, 695.194 354.121 C 684.212 356.389, 674.044 353.095, 665.351 344.452 C 659.234 338.370, 655.579 331.582, 654.093 323.547 C 653.496 320.317, 652.845 317.512, 652.646 317.313 C 652.447 317.114, 652.028 319.439, 651.714 322.479 C 650.992 329.475, 647.331 337.521, 642.370 343.012 C 625.364 361.836, 596.701 357.419, 585.308 334.218 C 582.500 328.500, 582.500 328.500, 582.182 299.250 C 581.865 270, 581.865 270, 510.932 270 C 440 270, 440 270, 440 296.290 M 500 295.433 C 484.665 299.707, 472.256 311.396, 466.934 326.581 C 465.239 331.416, 464.922 334.341, 465.198 342.558 C 465.501 351.567, 465.884 353.322, 468.869 359.386 C 476.072 374.016, 491.466 384.817, 506.490 385.781 C 521.807 386.764, 533.201 382.626, 542.854 372.574 C 551.580 363.486, 556.357 353.266, 556.855 342.615 C 557.322 332.646, 555.081 323.969, 550.040 316.221 C 545.613 309.418, 537.874 301.997, 532.173 299.088 C 522.743 294.277, 509.532 292.776, 500 295.433 M 498.500 312.845 C 478.504 322.320, 474.496 347.199, 490.596 361.914 C 499.438 369.995, 511.031 372.205, 522.355 367.968 C 528.160 365.796, 535.322 359.145, 538.525 352.952 C 542.174 345.895, 541.434 331.879, 537.110 326.145 C 535.343 323.803, 535.343 323.803, 521.921 337.888 C 514.540 345.634, 507.755 351.979, 506.844 351.986 C 504.477 352.006, 492 338.232, 492 335.601 C 492 332.344, 494.798 329, 497.522 329 C 498.847 329, 501.467 330.349, 503.345 331.998 C 506.759 334.996, 506.759 334.996, 516.406 324.945 C 521.712 319.417, 525.815 314.510, 525.525 314.041 C 524.475 312.342, 515.518 310, 510.072 310.001 C 506.024 310.001, 502.859 310.779, 498.500 312.845 M 377.250 368.744 C 369 369.081, 369 369.081, 369 371.933 C 369 375.032, 370.439 376, 375.048 376 C 377.932 376, 377.932 376, 378.216 386.750 C 378.500 397.500, 378.500 397.500, 381.500 397.500 C 384.500 397.500, 384.500 397.500, 384.783 386.855 C 385.066 376.210, 385.066 376.210, 388.780 375.513 C 392.906 374.739, 393.984 373.655, 393.285 370.982 C 392.814 369.181, 389.813 367.861, 387 368.217 C 386.175 368.322, 381.788 368.559, 377.250 368.744 M 415.070 372.702 C 411.756 377.405, 411.756 377.405, 408.128 373.187 C 404.629 369.119, 400.904 367.728, 399.518 369.971 C 398.808 371.120, 401.275 376.157, 404.858 380.870 C 406.827 383.459, 407.515 385.725, 407.829 390.648 C 408.160 395.854, 408.624 397.264, 410.301 398.161 C 412.024 399.083, 412.684 398.874, 414.286 396.895 C 415.762 395.072, 416.076 393.568, 415.640 390.392 C 415.066 386.204, 415.389 385.456, 423.056 373.189 C 424.359 371.105, 424.310 370.737, 422.559 369.439 C 419.574 367.227, 418.645 367.632, 415.070 372.702 M 306.667 369.667 C 305.681 370.652, 305.886 395.272, 306.893 396.861 C 307.540 397.883, 309.808 398.130, 315.965 397.850 C 323.975 397.486, 324.258 397.387, 327.587 393.753 C 329.868 391.264, 331.050 388.947, 331.151 386.765 C 331.580 377.480, 329.564 372.551, 324.466 370.421 C 321.035 368.988, 307.902 368.431, 306.667 369.667 M 339.400 370.401 C 339.076 371.245, 338.966 376.422, 339.155 381.905 C 339.482 391.354, 339.653 392.032, 342.437 394.937 C 344.973 397.582, 346.081 398, 350.552 398 C 360.221 398, 363.361 392.878, 362.813 378 C 362.500 369.500, 362.500 369.500, 359.500 369.500 C 356.500 369.500, 356.500 369.500, 356 378.602 C 355.462 388.390, 354.291 391, 350.437 391 C 347.083 391, 346.557 389.578, 346 379 C 345.501 369.515, 345.496 369.499, 342.744 369.183 C 340.968 368.979, 339.779 369.412, 339.400 370.401 M 313 383.500 C 313 391, 313 391, 316.277 391 C 321.364 391, 324 388.604, 324 383.982 C 324 379.092, 321.022 376, 316.311 376 C 313 376, 313 376, 313 383.500 M 272.557 444.223 C 271.165 446.209, 271 461.789, 271 591.039 C 271 690.139, 271.339 737.467, 272.078 741.464 C 275.833 761.775, 292.030 777.989, 311.563 780.989 C 316.343 781.724, 379.902 781.969, 516 781.778 C 707.517 781.508, 713.651 781.442, 718.500 779.593 C 733.904 773.717, 746.374 759.810, 750.129 744.316 C 751.718 737.761, 751.423 445.215, 749.826 443.290 C 748.957 442.243, 704.036 442, 511.434 442 C 274.113 442, 274.113 442, 272.557 444.223 M 359 469.363 C 346.887 471.994, 337.456 479.526, 332.180 490.782 C 329.832 495.792, 329.500 497.741, 329.500 506.521 C 329.500 515.832, 329.733 517.016, 332.792 523.229 C 338.038 533.884, 347.548 540.761, 360.280 543.108 C 376.152 546.032, 392.775 537.331, 400.219 522.202 C 403.196 516.152, 403.499 514.701, 403.487 506.518 C 403.476 498.537, 403.121 496.753, 400.397 491 C 398.704 487.425, 396.071 483.023, 394.545 481.219 C 386.357 471.537, 371.620 466.621, 359 469.363 M 505 469.125 C 488.904 471.788, 476.284 484.839, 473.969 501.218 C 471.645 517.664, 479.470 532.169, 494.736 539.714 C 501.618 543.115, 503.112 543.475, 510.421 543.487 C 525.901 543.512, 537.452 536.426, 544.500 522.579 C 548.261 515.190, 548.498 514.205, 548.472 506.110 C 548.447 498.596, 548.048 496.657, 545.334 490.877 C 543.623 487.234, 540.607 482.463, 538.630 480.276 C 534.437 475.634, 525.216 470.448, 519.500 469.517 C 511.776 468.258, 510.454 468.223, 505 469.125 M 650.083 469.052 C 637.303 470.870, 625.814 480.171, 620.926 492.656 C 617.543 501.298, 617.665 513.456, 621.213 521.175 C 634.544 550.183, 672.909 551.305, 688.756 523.152 C 692.388 516.698, 692.500 516.202, 692.500 506.500 C 692.500 497.761, 692.164 495.784, 689.840 490.825 C 686.929 484.617, 680.536 477.096, 675.629 474.108 C 668.493 469.763, 658.702 467.825, 650.083 469.052 M 532 550.650 C 525.060 555.545, 522.064 556.370, 511 556.437 C 500.650 556.499, 500.399 556.445, 493.440 552.642 C 486.379 548.784, 486.379 548.784, 479.249 552.375 C 466.977 558.555, 457.572 570.204, 453.519 584.244 C 451.803 590.190, 452.121 593.229, 454.773 596.250 C 456.202 597.877, 460.174 598, 511.155 598 C 565.757 598, 566.009 597.991, 568.127 595.873 C 569.951 594.049, 570.173 592.968, 569.688 588.269 C 568.294 574.755, 556.751 559.290, 542.500 551.841 C 535.500 548.182, 535.500 548.182, 532 550.650 M 335 552.286 C 321.905 558.698, 309.869 574.720, 308.334 587.783 C 307.790 592.412, 308.001 593.372, 310.031 595.533 C 312.349 598, 312.349 598, 366.674 598 C 420.646 598, 421.014 597.986, 423.114 595.886 C 426.222 592.778, 425.336 585.345, 420.690 575.562 C 416.090 565.877, 407.359 556.883, 397.776 551.960 C 391.109 548.534, 391.029 548.520, 388.276 550.312 C 380.296 555.507, 376.797 556.500, 366.479 556.500 C 357.022 556.500, 356.065 556.303, 349.479 553 C 345.641 551.075, 342.275 549.411, 342 549.302 C 341.725 549.193, 338.575 550.536, 335 552.286 M 623.037 552.688 C 610.363 559.207, 598.844 574.936, 597.334 587.783 C 596.790 592.412, 597.001 593.372, 599.031 595.533 C 601.349 598, 601.349 598, 655.452 598 C 718.650 598, 714.568 598.664, 713.753 588.517 C 712.677 575.112, 701.288 559.537, 687.119 552.095 C 680.739 548.743, 680.739 548.743, 673.397 552.520 C 667.402 555.604, 664.694 556.384, 658.632 556.773 C 649.638 557.350, 642.690 555.824, 636.527 551.915 C 633.999 550.312, 631.542 549, 631.068 549 C 630.594 549, 626.980 550.659, 623.037 552.688 M 505.121 623.180 C 497.659 624.346, 491.952 627.081, 486.504 632.103 C 478.022 639.921, 473.884 649.378, 473.859 661.001 C 473.836 671.354, 476.623 678.500, 483.385 685.427 C 502.758 705.269, 532.807 700.427, 545.080 675.485 C 548.174 669.198, 548.497 667.724, 548.471 660.018 C 548.447 652.903, 547.997 650.539, 545.737 645.664 C 544.249 642.454, 541.666 638.103, 539.996 635.995 C 532.416 626.424, 518.078 621.156, 505.121 623.180 M 649.839 623.100 C 642.101 624.201, 635.387 627.552, 629.841 633.079 C 615.119 647.752, 614.422 671.593, 628.301 685.798 C 646.937 704.872, 676.973 700.209, 689.066 676.365 C 692.265 670.056, 692.500 668.941, 692.500 660.047 C 692.500 651.782, 692.140 649.732, 689.820 644.782 C 686.333 637.343, 679.392 630.006, 672.778 626.768 C 668.119 624.487, 665.501 623.771, 657.500 622.589 C 656.400 622.427, 652.953 622.657, 649.839 623.100 M 354.005 624.612 C 339.664 629.808, 330.351 642.394, 329.265 658.050 C 327.738 680.069, 344.215 697.495, 366.510 697.440 C 381.225 697.404, 392.972 689.907, 399.721 676.246 C 403.210 669.185, 403.499 667.941, 403.482 660.049 C 403.466 652.565, 403.071 650.668, 400.317 644.820 C 396.293 636.276, 390.270 629.769, 383.175 626.297 C 378.463 623.992, 376.043 623.508, 368.033 623.268 C 361.136 623.062, 357.257 623.434, 354.005 624.612 M 386.434 705.038 C 374.640 713.208, 355.966 712.665, 343.777 703.798 C 342.334 702.748, 340.982 703.073, 335.457 705.797 C 323.957 711.468, 314.872 721.707, 310.156 734.314 C 307.264 742.043, 307.328 747.020, 310.357 749.866 C 312.714 752.080, 312.714 752.080, 367.438 751.790 C 420.819 751.507, 422.199 751.451, 423.667 749.500 C 427.563 744.322, 421.327 726.896, 411.881 716.560 C 407.274 711.520, 399.956 706.407, 392.978 703.354 C 390.823 702.411, 389.873 702.655, 386.434 705.038 M 478.937 706.235 C 468.966 711.739, 462.110 718.956, 456.939 729.390 C 451.751 739.861, 451.095 747.039, 455.035 750.230 C 457.387 752.134, 459.041 752.181, 512.309 751.845 C 565.785 751.509, 567.199 751.450, 568.667 749.500 C 571.017 746.376, 569.735 738.239, 565.507 729.448 C 560.835 719.735, 552.128 710.780, 542.500 705.787 C 536.089 702.463, 535.332 702.284, 533.500 703.658 C 532.400 704.484, 529.250 706.352, 526.500 707.810 C 522.008 710.192, 520.433 710.462, 511 710.463 C 500.100 710.465, 496.846 709.503, 488.937 703.935 C 486.398 702.147, 486.306 702.168, 478.937 706.235 M 675.117 705.613 C 668.553 709.637, 660.694 711.391, 652.023 710.766 C 645.870 710.323, 641.914 708.907, 634.256 704.406 C 631.012 702.500, 631.012 702.500, 623.538 706.331 C 610.538 712.996, 598.877 728.803, 597.331 741.854 C 596.802 746.322, 597.016 747.106, 599.417 749.508 C 602.092 752.183, 602.092 752.183, 655.717 751.849 C 689.297 751.639, 710.103 751.135, 711.378 750.499 C 715.808 748.290, 715.072 739.706, 709.474 728.300 C 704.967 719.118, 696.529 710.549, 687.342 705.828 C 680.500 702.312, 680.500 702.312, 675.117 705.613" stroke="none" fill="#f0eadd" fill-rule="evenodd"/><path d="M 320.222 221.002 C 307.660 227.369, 300.353 237.313, 297.943 251.324 C 296.923 257.251, 296.423 258.286, 294.134 259.194 C 272.271 267.873, 257.306 280.982, 248.121 299.500 C 240.300 315.266, 240.826 297.033, 241.298 536.076 C 241.623 701.212, 241.999 750.631, 242.957 754.500 C 244.912 762.393, 252.204 776.959, 257.374 783.299 C 265.498 793.261, 273.792 799.966, 284.908 805.557 C 293.499 809.878, 301.288 811.794, 314.084 812.734 C 319.813 813.156, 413.150 813.275, 521.500 813 C 718.500 812.500, 718.500 812.500, 728.100 809.251 C 739.082 805.535, 750.905 798.196, 758.312 790.500 C 768.236 780.187, 777.718 761.198, 780.279 746.504 C 781.215 741.133, 781.487 690.651, 781.444 530 C 781.381 295.114, 782.016 314.882, 774.012 298.500 C 766.102 282.310, 755.988 272.580, 737.630 263.500 C 725.500 257.500, 725.500 257.500, 724.220 251 C 721.468 237.019, 714.158 226.190, 704.161 221.280 C 699.177 218.832, 697.364 218.500, 689 218.500 C 680.362 218.500, 679.020 218.766, 674.203 221.434 C 666.251 225.840, 662.505 229.649, 657.121 238.803 C 652.238 247.106, 652.238 247.106, 649.184 240.580 C 645.292 232.262, 638.299 224.784, 631.125 221.268 C 626.331 218.918, 624.244 218.510, 617 218.505 C 609.213 218.500, 607.970 218.787, 602.187 221.923 C 591.359 227.794, 585.324 236.489, 581.339 251.961 C 580.725 254.343, 579.737 255.590, 578.167 255.961 C 576.913 256.258, 545.595 256.381, 508.571 256.236 C 441.255 255.972, 441.255 255.972, 440.055 249.736 C 437.560 236.773, 429.755 225.455, 420.217 220.972 C 414.634 218.347, 402.358 217.263, 396.441 218.871 C 387.930 221.184, 378.192 230.286, 371.797 241.905 C 370.860 243.607, 369.735 244.999, 369.297 244.998 C 368.858 244.996, 367.191 242.491, 365.592 239.430 C 358.450 225.762, 348.749 219.113, 334.766 218.301 C 326.987 217.849, 326.130 218.008, 320.222 221.002 M 327 241.192 C 323.725 242.872, 321.888 244.714, 320.250 247.962 C 318.046 252.332, 318 253.132, 318 287 C 318 320.868, 318.046 321.668, 320.250 326.038 C 324.658 334.779, 335.089 337.221, 342.823 331.322 C 348.861 326.716, 349 325.725, 349 287.348 C 349 254.750, 348.879 252.383, 347.015 248.566 C 343.030 240.404, 334.595 237.297, 327 241.192 M 400.500 240.494 C 395.817 242.146, 391.248 247.132, 390.456 251.454 C 390.149 253.129, 390.034 270.250, 390.199 289.500 C 390.496 323.991, 390.533 324.546, 392.757 327.664 C 396.072 332.311, 402.941 335.355, 408.134 334.477 C 413.617 333.551, 418.816 328.753, 420.029 323.500 C 420.537 321.300, 420.953 304.650, 420.954 286.500 C 420.956 256.616, 420.783 253.118, 419.120 249.459 C 417.059 244.922, 411.796 240, 409.005 240 C 407.992 240, 406.564 239.794, 405.832 239.542 C 405.099 239.290, 402.700 239.718, 400.500 240.494 M 610.970 241.250 C 608.520 242.488, 605.500 245.029, 604.258 246.898 C 602.017 250.271, 602 250.567, 602 287 C 602 323.417, 602.018 323.730, 604.250 327.010 C 607.871 332.331, 611.373 334.385, 616.824 334.385 C 622.763 334.385, 627.676 331.712, 630.465 326.965 C 632.385 323.696, 632.517 321.597, 632.799 289.790 C 632.996 267.644, 632.724 254.689, 632.007 252.027 C 630.560 246.653, 625.718 241.294, 621.168 240.030 C 616.225 238.657, 616.064 238.676, 610.970 241.250 M 684.001 240.078 C 682.626 240.651, 680.446 242.106, 679.155 243.310 C 674.029 248.097, 674 248.342, 674 287.302 C 674 323.406, 674.018 323.731, 676.250 327.010 C 679.871 332.331, 683.373 334.385, 688.824 334.385 C 694.579 334.385, 699.668 331.733, 702.184 327.425 C 703.712 324.809, 704.027 320.348, 704.620 292.960 C 704.994 275.657, 704.979 258.935, 704.585 255.800 C 703.435 246.650, 698.121 240.517, 690.500 239.546 C 688.300 239.266, 685.375 239.505, 684.001 240.078 M 440 296.290 C 440 327.466, 439.365 331.085, 432.159 340.982 C 428.268 346.326, 426.179 348.130, 420.557 351 C 414.367 354.160, 412.915 354.497, 405.601 354.472 C 398.986 354.449, 396.455 353.959, 391.804 351.802 C 380.865 346.729, 371.458 333.836, 370.266 322.285 C 369.694 316.750, 368.046 316.742, 368.015 322.275 C 367.973 329.877, 360.795 342.552, 353.325 348.212 C 344.295 355.055, 328.847 356.597, 319 351.640 C 311.462 347.845, 304.714 340.954, 301.343 333.610 C 298.667 327.780, 298.522 326.688, 298.172 309.750 C 297.971 299.988, 297.488 292, 297.099 292 C 295.464 292, 287.170 297.977, 282.972 302.180 C 280.482 304.673, 276.882 309.790, 274.972 313.552 C 271.500 320.390, 271.500 320.390, 271.184 362.976 C 270.870 405.205, 270.886 405.585, 273.006 408.281 C 275.145 411, 275.145 411, 511.118 411 C 747.091 411, 747.091 411, 749.545 408.545 C 752 406.091, 752 406.091, 751.942 374.295 C 751.862 330.278, 751.170 321.820, 746.946 313.239 C 743.215 305.659, 735.465 297.298, 729.214 294.109 C 726.940 292.949, 724.873 292, 724.621 292 C 724.368 292, 724.013 300.013, 723.831 309.807 C 723.500 327.614, 723.500 327.614, 719.714 335.270 C 714.282 346.252, 707.299 351.620, 695.194 354.121 C 684.212 356.389, 674.044 353.095, 665.351 344.452 C 659.234 338.370, 655.579 331.582, 654.093 323.547 C 653.496 320.317, 652.845 317.512, 652.646 317.313 C 652.447 317.114, 652.028 319.439, 651.714 322.479 C 650.992 329.475, 647.331 337.521, 642.370 343.012 C 625.364 361.836, 596.701 357.419, 585.308 334.218 C 582.500 328.500, 582.500 328.500, 582.182 299.250 C 581.865 270, 581.865 270, 510.932 270 C 440 270, 440 270, 440 296.290 M 500 295.433 C 484.665 299.707, 472.256 311.396, 466.934 326.581 C 465.239 331.416, 464.922 334.341, 465.198 342.558 C 465.501 351.567, 465.884 353.322, 468.869 359.386 C 476.072 374.016, 491.466 384.817, 506.490 385.781 C 521.807 386.764, 533.201 382.626, 542.854 372.574 C 551.580 363.486, 556.357 353.266, 556.855 342.615 C 557.322 332.646, 555.081 323.969, 550.040 316.221 C 545.613 309.418, 537.874 301.997, 532.173 299.088 C 522.743 294.277, 509.532 292.776, 500 295.433 M 498.500 312.845 C 478.504 322.320, 474.496 347.199, 490.596 361.914 C 499.438 369.995, 511.031 372.205, 522.355 367.968 C 528.160 365.796, 535.322 359.145, 538.525 352.952 C 542.174 345.895, 541.434 331.879, 537.110 326.145 C 535.343 323.803, 535.343 323.803, 521.921 337.888 C 514.540 345.634, 507.755 351.979, 506.844 351.986 C 504.477 352.006, 492 338.232, 492 335.601 C 492 332.344, 494.798 329, 497.522 329 C 498.847 329, 501.467 330.349, 503.345 331.998 C 506.759 334.996, 506.759 334.996, 516.406 324.945 C 521.712 319.417, 525.815 314.510, 525.525 314.041 C 524.475 312.342, 515.518 310, 510.072 310.001 C 506.024 310.001, 502.859 310.779, 498.500 312.845 M 377.250 368.744 C 369 369.081, 369 369.081, 369 371.933 C 369 375.032, 370.439 376, 375.048 376 C 377.932 376, 377.932 376, 378.216 386.750 C 378.500 397.500, 378.500 397.500, 381.500 397.500 C 384.500 397.500, 384.500 397.500, 384.783 386.855 C 385.066 376.210, 385.066 376.210, 388.780 375.513 C 392.906 374.739, 393.984 373.655, 393.285 370.982 C 392.814 369.181, 389.813 367.861, 387 368.217 C 386.175 368.322, 381.788 368.559, 377.250 368.744 M 415.070 372.702 C 411.756 377.405, 411.756 377.405, 408.128 373.187 C 404.629 369.119, 400.904 367.728, 399.518 369.971 C 398.808 371.120, 401.275 376.157, 404.858 380.870 C 406.827 383.459, 407.515 385.725, 407.829 390.648 C 408.160 395.854, 408.624 397.264, 410.301 398.161 C 412.024 399.083, 412.684 398.874, 414.286 396.895 C 415.762 395.072, 416.076 393.568, 415.640 390.392 C 415.066 386.204, 415.389 385.456, 423.056 373.189 C 424.359 371.105, 424.310 370.737, 422.559 369.439 C 419.574 367.227, 418.645 367.632, 415.070 372.702 M 306.667 369.667 C 305.681 370.652, 305.886 395.272, 306.893 396.861 C 307.540 397.883, 309.808 398.130, 315.965 397.850 C 323.975 397.486, 324.258 397.387, 327.587 393.753 C 329.868 391.264, 331.050 388.947, 331.151 386.765 C 331.580 377.480, 329.564 372.551, 324.466 370.421 C 321.035 368.988, 307.902 368.431, 306.667 369.667 M 339.400 370.401 C 339.076 371.245, 338.966 376.422, 339.155 381.905 C 339.482 391.354, 339.653 392.032, 342.437 394.937 C 344.973 397.582, 346.081 398, 350.552 398 C 360.221 398, 363.361 392.878, 362.813 378 C 362.500 369.500, 362.500 369.500, 359.500 369.500 C 356.500 369.500, 356.500 369.500, 356 378.602 C 355.462 388.390, 354.291 391, 350.437 391 C 347.083 391, 346.557 389.578, 346 379 C 345.501 369.515, 345.496 369.499, 342.744 369.183 C 340.968 368.979, 339.779 369.412, 339.400 370.401 M 313 383.500 C 313 391, 313 391, 316.277 391 C 321.364 391, 324 388.604, 324 383.982 C 324 379.092, 321.022 376, 316.311 376 C 313 376, 313 376, 313 383.500 M 272.557 444.223 C 271.165 446.209, 271 461.789, 271 591.039 C 271 690.139, 271.339 737.467, 272.078 741.464 C 275.833 761.775, 292.030 777.989, 311.563 780.989 C 316.343 781.724, 379.902 781.969, 516 781.778 C 707.517 781.508, 713.651 781.442, 718.500 779.593 C 733.904 773.717, 746.374 759.810, 750.129 744.316 C 751.718 737.761, 751.423 445.215, 749.826 443.290 C 748.957 442.243, 704.036 442, 511.434 442 C 274.113 442, 274.113 442, 272.557 444.223 M 359 469.363 C 346.887 471.994, 337.456 479.526, 332.180 490.782 C 329.832 495.792, 329.500 497.741, 329.500 506.521 C 329.500 515.832, 329.733 517.016, 332.792 523.229 C 338.038 533.884, 347.548 540.761, 360.280 543.108 C 376.152 546.032, 392.775 537.331, 400.219 522.202 C 403.196 516.152, 403.499 514.701, 403.487 506.518 C 403.476 498.537, 403.121 496.753, 400.397 491 C 398.704 487.425, 396.071 483.023, 394.545 481.219 C 386.357 471.537, 371.620 466.621, 359 469.363 M 505 469.125 C 488.904 471.788, 476.284 484.839, 473.969 501.218 C 471.645 517.664, 479.470 532.169, 494.736 539.714 C 501.618 543.115, 503.112 543.475, 510.421 543.487 C 525.901 543.512, 537.452 536.426, 544.500 522.579 C 548.261 515.190, 548.498 514.205, 548.472 506.110 C 548.447 498.596, 548.048 496.657, 545.334 490.877 C 543.623 487.234, 540.607 482.463, 538.630 480.276 C 534.437 475.634, 525.216 470.448, 519.500 469.517 C 511.776 468.258, 510.454 468.223, 505 469.125 M 650.083 469.052 C 637.303 470.870, 625.814 480.171, 620.926 492.656 C 617.543 501.298, 617.665 513.456, 621.213 521.175 C 634.544 550.183, 672.909 551.305, 688.756 523.152 C 692.388 516.698, 692.500 516.202, 692.500 506.500 C 692.500 497.761, 692.164 495.784, 689.840 490.825 C 686.929 484.617, 680.536 477.096, 675.629 474.108 C 668.493 469.763, 658.702 467.825, 650.083 469.052 M 532 550.650 C 525.060 555.545, 522.064 556.370, 511 556.437 C 500.650 556.499, 500.399 556.445, 493.440 552.642 C 486.379 548.784, 486.379 548.784, 479.249 552.375 C 466.977 558.555, 457.572 570.204, 453.519 584.244 C 451.803 590.190, 452.121 593.229, 454.773 596.250 C 456.202 597.877, 460.174 598, 511.155 598 C 565.757 598, 566.009 597.991, 568.127 595.873 C 569.951 594.049, 570.173 592.968, 569.688 588.269 C 568.294 574.755, 556.751 559.290, 542.500 551.841 C 535.500 548.182, 535.500 548.182, 532 550.650 M 335 552.286 C 321.905 558.698, 309.869 574.720, 308.334 587.783 C 307.790 592.412, 308.001 593.372, 310.031 595.533 C 312.349 598, 312.349 598, 366.674 598 C 420.646 598, 421.014 597.986, 423.114 595.886 C 426.222 592.778, 425.336 585.345, 420.690 575.562 C 416.090 565.877, 407.359 556.883, 397.776 551.960 C 391.109 548.534, 391.029 548.520, 388.276 550.312 C 380.296 555.507, 376.797 556.500, 366.479 556.500 C 357.022 556.500, 356.065 556.303, 349.479 553 C 345.641 551.075, 342.275 549.411, 342 549.302 C 341.725 549.193, 338.575 550.536, 335 552.286 M 623.037 552.688 C 610.363 559.207, 598.844 574.936, 597.334 587.783 C 596.790 592.412, 597.001 593.372, 599.031 595.533 C 601.349 598, 601.349 598, 655.452 598 C 718.650 598, 714.568 598.664, 713.753 588.517 C 712.677 575.112, 701.288 559.537, 687.119 552.095 C 680.739 548.743, 680.739 548.743, 673.397 552.520 C 667.402 555.604, 664.694 556.384, 658.632 556.773 C 649.638 557.350, 642.690 555.824, 636.527 551.915 C 633.999 550.312, 631.542 549, 631.068 549 C 630.594 549, 626.980 550.659, 623.037 552.688 M 505.121 623.180 C 497.659 624.346, 491.952 627.081, 486.504 632.103 C 478.022 639.921, 473.884 649.378, 473.859 661.001 C 473.836 671.354, 476.623 678.500, 483.385 685.427 C 502.758 705.269, 532.807 700.427, 545.080 675.485 C 548.174 669.198, 548.497 667.724, 548.471 660.018 C 548.447 652.903, 547.997 650.539, 545.737 645.664 C 544.249 642.454, 541.666 638.103, 539.996 635.995 C 532.416 626.424, 518.078 621.156, 505.121 623.180 M 649.839 623.100 C 642.101 624.201, 635.387 627.552, 629.841 633.079 C 615.119 647.752, 614.422 671.593, 628.301 685.798 C 646.937 704.872, 676.973 700.209, 689.066 676.365 C 692.265 670.056, 692.500 668.941, 692.500 660.047 C 692.500 651.782, 692.140 649.732, 689.820 644.782 C 686.333 637.343, 679.392 630.006, 672.778 626.768 C 668.119 624.487, 665.501 623.771, 657.500 622.589 C 656.400 622.427, 652.953 622.657, 649.839 623.100 M 354.005 624.612 C 339.664 629.808, 330.351 642.394, 329.265 658.050 C 327.738 680.069, 344.215 697.495, 366.510 697.440 C 381.225 697.404, 392.972 689.907, 399.721 676.246 C 403.210 669.185, 403.499 667.941, 403.482 660.049 C 403.466 652.565, 403.071 650.668, 400.317 644.820 C 396.293 636.276, 390.270 629.769, 383.175 626.297 C 378.463 623.992, 376.043 623.508, 368.033 623.268 C 361.136 623.062, 357.257 623.434, 354.005 624.612 M 386.434 705.038 C 374.640 713.208, 355.966 712.665, 343.777 703.798 C 342.334 702.748, 340.982 703.073, 335.457 705.797 C 323.957 711.468, 314.872 721.707, 310.156 734.314 C 307.264 742.043, 307.328 747.020, 310.357 749.866 C 312.714 752.080, 312.714 752.080, 367.438 751.790 C 420.819 751.507, 422.199 751.451, 423.667 749.500 C 427.563 744.322, 421.327 726.896, 411.881 716.560 C 407.274 711.520, 399.956 706.407, 392.978 703.354 C 390.823 702.411, 389.873 702.655, 386.434 705.038 M 478.937 706.235 C 468.966 711.739, 462.110 718.956, 456.939 729.390 C 451.751 739.861, 451.095 747.039, 455.035 750.230 C 457.387 752.134, 459.041 752.181, 512.309 751.845 C 565.785 751.509, 567.199 751.450, 568.667 749.500 C 571.017 746.376, 569.735 738.239, 565.507 729.448 C 560.835 719.735, 552.128 710.780, 542.500 705.787 C 536.089 702.463, 535.332 702.284, 533.500 703.658 C 532.400 704.484, 529.250 706.352, 526.500 707.810 C 522.008 710.192, 520.433 710.462, 511 710.463 C 500.100 710.465, 496.846 709.503, 488.937 703.935 C 486.398 702.147, 486.306 702.168, 478.937 706.235 M 675.117 705.613 C 668.553 709.637, 660.694 711.391, 652.023 710.766 C 645.870 710.323, 641.914 708.907, 634.256 704.406 C 631.012 702.500, 631.012 702.500, 623.538 706.331 C 610.538 712.996, 598.877 728.803, 597.331 741.854 C 596.802 746.322, 597.016 747.106, 599.417 749.508 C 602.092 752.183, 602.092 752.183, 655.717 751.849 C 689.297 751.639, 710.103 751.135, 711.378 750.499 C 715.808 748.290, 715.072 739.706, 709.474 728.300 C 704.967 719.118, 696.529 710.549, 687.342 705.828 C 680.500 702.312, 680.500 702.312, 675.117 705.613" stroke="none" fill="#061c2b" fill-rule="evenodd"/></svg>